<mxfile host="app.diagrams.net" modified="2024-06-07T21:03:04.203Z" agent="Mozilla/5.0 (Windows NT 10.0; Win64; x64) AppleWebKit/537.36 (KHTML, like Gecko) Chrome/125.0.0.0 Safari/537.36" etag="AET99-q89qTfiX4TKhPb" version="24.5.2" type="device">
  <diagram name="Page-1" id="BygSy47Y9eUIjau8v-zo">
    <mxGraphModel dx="1434" dy="746" grid="1" gridSize="10" guides="1" tooltips="1" connect="1" arrows="1" fold="1" page="1" pageScale="1" pageWidth="850" pageHeight="1100" math="0" shadow="0">
      <root>
        <mxCell id="0" />
        <mxCell id="1" parent="0" />
        <mxCell id="vFOskMODguD0oBmhoit3-3" value="[N*m]" style="edgeStyle=orthogonalEdgeStyle;rounded=0;orthogonalLoop=1;jettySize=auto;html=1;" edge="1" parent="1" source="vFOskMODguD0oBmhoit3-1" target="vFOskMODguD0oBmhoit3-2">
          <mxGeometry relative="1" as="geometry" />
        </mxCell>
        <mxCell id="vFOskMODguD0oBmhoit3-1" value="Motor Torque&lt;div&gt;(Determined by Controller)&lt;/div&gt;" style="rounded=0;whiteSpace=wrap;html=1;" vertex="1" parent="1">
          <mxGeometry x="530" y="290" width="120" height="60" as="geometry" />
        </mxCell>
        <mxCell id="vFOskMODguD0oBmhoit3-5" value="[rad/s]" style="edgeStyle=orthogonalEdgeStyle;rounded=0;orthogonalLoop=1;jettySize=auto;html=1;" edge="1" parent="1" source="vFOskMODguD0oBmhoit3-2" target="vFOskMODguD0oBmhoit3-4">
          <mxGeometry relative="1" as="geometry" />
        </mxCell>
        <mxCell id="vFOskMODguD0oBmhoit3-2" value="Torque to Angular Velocity" style="whiteSpace=wrap;html=1;rounded=0;" vertex="1" parent="1">
          <mxGeometry x="730" y="290" width="120" height="60" as="geometry" />
        </mxCell>
        <mxCell id="vFOskMODguD0oBmhoit3-7" value="[rad]" style="edgeStyle=orthogonalEdgeStyle;rounded=0;orthogonalLoop=1;jettySize=auto;html=1;" edge="1" parent="1" source="vFOskMODguD0oBmhoit3-4" target="vFOskMODguD0oBmhoit3-6">
          <mxGeometry relative="1" as="geometry" />
        </mxCell>
        <mxCell id="vFOskMODguD0oBmhoit3-4" value="Angular Velocity to Spool Position" style="whiteSpace=wrap;html=1;rounded=0;" vertex="1" parent="1">
          <mxGeometry x="930" y="290" width="120" height="60" as="geometry" />
        </mxCell>
        <mxCell id="vFOskMODguD0oBmhoit3-15" value="" style="edgeStyle=orthogonalEdgeStyle;rounded=0;orthogonalLoop=1;jettySize=auto;html=1;entryX=0.5;entryY=1;entryDx=0;entryDy=0;exitX=1;exitY=0.5;exitDx=0;exitDy=0;" edge="1" parent="1" source="vFOskMODguD0oBmhoit3-6" target="vFOskMODguD0oBmhoit3-26">
          <mxGeometry relative="1" as="geometry">
            <mxPoint x="1165" y="550" as="sourcePoint" />
            <mxPoint x="460" y="590" as="targetPoint" />
            <Array as="points">
              <mxPoint x="1270" y="320" />
              <mxPoint x="1270" y="530" />
              <mxPoint x="370" y="530" />
            </Array>
          </mxGeometry>
        </mxCell>
        <mxCell id="vFOskMODguD0oBmhoit3-16" value="[m]" style="edgeLabel;html=1;align=center;verticalAlign=middle;resizable=0;points=[];" vertex="1" connectable="0" parent="vFOskMODguD0oBmhoit3-15">
          <mxGeometry x="0.144" y="-2" relative="1" as="geometry">
            <mxPoint x="62" y="2" as="offset" />
          </mxGeometry>
        </mxCell>
        <mxCell id="vFOskMODguD0oBmhoit3-33" value="[x,y]" style="edgeLabel;html=1;align=center;verticalAlign=middle;resizable=0;points=[];" vertex="1" connectable="0" parent="vFOskMODguD0oBmhoit3-15">
          <mxGeometry x="0.96" relative="1" as="geometry">
            <mxPoint as="offset" />
          </mxGeometry>
        </mxCell>
        <mxCell id="vFOskMODguD0oBmhoit3-6" value="Spool Position to Cable Out" style="whiteSpace=wrap;html=1;rounded=0;" vertex="1" parent="1">
          <mxGeometry x="1130" y="290" width="120" height="60" as="geometry" />
        </mxCell>
        <mxCell id="vFOskMODguD0oBmhoit3-9" value="" style="edgeStyle=orthogonalEdgeStyle;rounded=0;orthogonalLoop=1;jettySize=auto;html=1;" edge="1" parent="1" source="vFOskMODguD0oBmhoit3-8" target="vFOskMODguD0oBmhoit3-2">
          <mxGeometry relative="1" as="geometry" />
        </mxCell>
        <mxCell id="vFOskMODguD0oBmhoit3-8" value="V0 = 0 rad/s" style="rounded=1;whiteSpace=wrap;html=1;fontStyle=0;fillColor=#d5e8d4;strokeColor=#82b366;" vertex="1" parent="1">
          <mxGeometry x="730" y="170" width="120" height="60" as="geometry" />
        </mxCell>
        <mxCell id="vFOskMODguD0oBmhoit3-19" value="" style="edgeStyle=orthogonalEdgeStyle;rounded=0;orthogonalLoop=1;jettySize=auto;html=1;" edge="1" parent="1" source="vFOskMODguD0oBmhoit3-18" target="vFOskMODguD0oBmhoit3-1">
          <mxGeometry relative="1" as="geometry" />
        </mxCell>
        <mxCell id="vFOskMODguD0oBmhoit3-18" value="Robot&#39;s Position&lt;div&gt;[xr, yr]&lt;/div&gt;" style="rounded=1;whiteSpace=wrap;html=1;fontStyle=0;fillColor=#d5e8d4;strokeColor=#82b366;" vertex="1" parent="1">
          <mxGeometry x="530" y="410" width="120" height="60" as="geometry" />
        </mxCell>
        <mxCell id="vFOskMODguD0oBmhoit3-22" value="" style="edgeStyle=orthogonalEdgeStyle;rounded=0;orthogonalLoop=1;jettySize=auto;html=1;" edge="1" parent="1" source="vFOskMODguD0oBmhoit3-21" target="vFOskMODguD0oBmhoit3-4">
          <mxGeometry relative="1" as="geometry" />
        </mxCell>
        <mxCell id="vFOskMODguD0oBmhoit3-21" value="X0 = 0 rad" style="rounded=1;whiteSpace=wrap;html=1;fontStyle=0;fillColor=#d5e8d4;strokeColor=#82b366;" vertex="1" parent="1">
          <mxGeometry x="930" y="170" width="120" height="60" as="geometry" />
        </mxCell>
        <mxCell id="vFOskMODguD0oBmhoit3-24" value="" style="edgeStyle=orthogonalEdgeStyle;rounded=0;orthogonalLoop=1;jettySize=auto;html=1;" edge="1" parent="1" source="vFOskMODguD0oBmhoit3-23" target="vFOskMODguD0oBmhoit3-6">
          <mxGeometry relative="1" as="geometry" />
        </mxCell>
        <mxCell id="vFOskMODguD0oBmhoit3-23" value="Object Home Position&lt;div&gt;[x0, y0]&lt;/div&gt;" style="rounded=1;whiteSpace=wrap;html=1;fillColor=#d5e8d4;strokeColor=#82b366;" vertex="1" parent="1">
          <mxGeometry x="1130" y="170" width="120" height="60" as="geometry" />
        </mxCell>
        <mxCell id="vFOskMODguD0oBmhoit3-27" value="" style="edgeStyle=orthogonalEdgeStyle;rounded=0;orthogonalLoop=1;jettySize=auto;html=1;" edge="1" parent="1" source="vFOskMODguD0oBmhoit3-25" target="vFOskMODguD0oBmhoit3-26">
          <mxGeometry relative="1" as="geometry" />
        </mxCell>
        <mxCell id="vFOskMODguD0oBmhoit3-32" value="[xf, yf]" style="edgeLabel;html=1;align=center;verticalAlign=middle;resizable=0;points=[];" vertex="1" connectable="0" parent="vFOskMODguD0oBmhoit3-27">
          <mxGeometry x="0.0667" y="-1" relative="1" as="geometry">
            <mxPoint as="offset" />
          </mxGeometry>
        </mxCell>
        <mxCell id="vFOskMODguD0oBmhoit3-25" value="Target Position [xf, yf]" style="rounded=1;whiteSpace=wrap;html=1;fontStyle=0;fillColor=#d5e8d4;strokeColor=#82b366;" vertex="1" parent="1">
          <mxGeometry x="120" y="290" width="120" height="60" as="geometry" />
        </mxCell>
        <mxCell id="vFOskMODguD0oBmhoit3-28" value="" style="edgeStyle=orthogonalEdgeStyle;rounded=0;orthogonalLoop=1;jettySize=auto;html=1;" edge="1" parent="1" source="vFOskMODguD0oBmhoit3-26" target="vFOskMODguD0oBmhoit3-1">
          <mxGeometry relative="1" as="geometry" />
        </mxCell>
        <mxCell id="vFOskMODguD0oBmhoit3-29" value="Position Error&lt;div&gt;[x_err,y_err]&lt;/div&gt;" style="edgeLabel;html=1;align=center;verticalAlign=middle;resizable=0;points=[];" vertex="1" connectable="0" parent="vFOskMODguD0oBmhoit3-28">
          <mxGeometry x="0.0462" y="1" relative="1" as="geometry">
            <mxPoint x="-13" y="1" as="offset" />
          </mxGeometry>
        </mxCell>
        <mxCell id="vFOskMODguD0oBmhoit3-26" value="+ / -" style="ellipse;whiteSpace=wrap;html=1;aspect=fixed;" vertex="1" parent="1">
          <mxGeometry x="330" y="280" width="80" height="80" as="geometry" />
        </mxCell>
      </root>
    </mxGraphModel>
  </diagram>
</mxfile>
